# xmcd CD database file
# Copyright (C) 1995-1998 Ti Kan
#
# Track frame offsets:
#	150
#	11220
#	26450
#	41417
#	52092
#	65050
#	80087
#	93435
#	106267
#	127550
#	138545
#	150742
#	163710
#	180765
#	194287
#	203977
#	214000
#	224482
#	236457
#	248825
#
# Disc length: 3446 seconds
#
# Revision: 1
# Processed by: cddbd v1.4PL0 Copyright (c) Steve Scherf et al.
# Submitted via: CDex 1.30Release
#
DISCID=150d7414
DTITLE=Conway Twitty and Loretta Lynn - Sing Their Biggest Hits [CD1]
DYEAR=1997
DGENRE=Country
TTITLE0=Hello Darlin'
TTITLE1=Play Guitar Play
TTITLE2=Georgia Keeps Pulling On My Ring
TTITLE3=Boogie Grass Band
TTITLE4=Happy Birthday Darlin'
TTITLE5=I'd Just Love To Lay You Down
TTITLE6=A Bridge That Just Won't Burn
TTITLE7=Tight Fittin' Jeans
TTITLE8=Red Neckin' Love Makin' Night
TTITLE9=I Can't Believe She Gives It All To Me
TTITLE10=Linda On My Mind
TTITLE11=I've Never Seen The Likes of You
TTITLE12=Crazy In Love
TTITLE13=Coal Miner's Daughter
TTITLE14=Don't Come Home A Drinkin' (With Lovin' On Your Mind)
TTITLE15=Fist City
TTITLE16=You're Looking At Country
TTITLE17=One's On The Way
TTITLE18=Here I Am Again
TTITLE19=Trouble In Paradise
EXTD=YEAR: 1997 ID3G:   2
EXTT0=
EXTT1=
EXTT2=
EXTT3=
EXTT4=
EXTT5=
EXTT6=
EXTT7=
EXTT8=
EXTT9=
EXTT10=
EXTT11=
EXTT12=
EXTT13=
EXTT14=
EXTT15=
EXTT16=
EXTT17=
EXTT18=
EXTT19=
PLAYORDER=
